<svg width="180" height="180" viewBox="0 0 180 180" fill="none" xmlns="http://www.w3.org/2000/svg">
<path d="M38.2297 87.2892C38.0955 84.9757 36.1008 83.2139 33.7957 83.3482L15.9485 84.3969C13.6371 84.5332 11.8711 86.5195 12.0074 88.833C12.1395 91.0605 13.9874 92.7804 16.1918 92.7804C16.2757 92.7804 16.3596 92.7783 16.4435 92.772L34.2886 91.7233C36.6021 91.5869 38.366 89.6027 38.2297 87.2892Z" fill="white"/>
<path d="M162.94 83.4024H145.47C143.153 83.4024 141.275 85.2817 141.275 87.5973C141.275 89.915 143.153 91.7922 145.47 91.7922H162.94C165.258 91.7922 167.135 89.9129 167.135 87.5973C167.135 85.2796 165.258 83.4024 162.94 83.4024Z" fill="white"/>
<path d="M89.5992 35.8596C91.9169 35.8596 93.7941 33.9824 93.7941 31.6647V14.195C93.7941 11.8773 91.9148 10.0001 89.5992 10.0001C87.2815 10.0001 85.4043 11.8773 85.4043 14.195V31.6647C85.4043 33.9824 87.2836 35.8596 89.5992 35.8596Z" fill="white"/>
<path d="M47.2375 124.144L34.7597 136.611C33.1195 138.249 33.1195 140.904 34.7576 142.543C35.5756 143.365 36.6495 143.774 37.7234 143.774C38.7973 143.774 39.8691 143.365 40.6892 142.545L53.167 130.079C54.8051 128.441 54.8072 125.784 53.1691 124.146C51.5331 122.506 48.8756 122.508 47.2375 124.144Z" fill="white"/>
<path d="M129.161 52.3456C130.235 52.3456 131.309 51.9366 132.127 51.1165L144.766 38.4688C146.404 36.8307 146.404 34.1754 144.764 32.5372C143.126 30.8991 140.471 30.8991 138.832 32.5393L126.193 45.1869C124.555 46.8251 124.555 49.4804 126.195 51.1186C127.013 51.9366 128.087 52.3456 129.161 52.3456Z" fill="white"/>
<path d="M132.327 124.146C130.689 122.506 128.034 122.508 126.394 124.144C124.756 125.782 124.753 128.437 126.392 130.077L138.846 142.543C139.666 143.365 140.74 143.774 141.814 143.774C142.888 143.774 143.96 143.365 144.78 142.547C146.418 140.909 146.418 138.253 144.782 136.613L132.327 124.146Z" fill="white"/>
<path d="M47.4378 51.1186C48.2579 51.9366 49.3297 52.3456 50.4036 52.3456C51.4775 52.3456 52.5514 51.9366 53.3715 51.1165C55.0075 49.4762 55.0054 46.8209 53.3673 45.1827L40.7091 32.5372C39.071 30.8991 36.4156 30.8991 34.7775 32.5393C33.1415 34.1775 33.1415 36.8349 34.7796 38.473L47.4378 51.1186Z" fill="white"/>
<path d="M106.012 147.656H73.5328C71.2172 147.656 69.3379 149.535 69.3379 151.851C69.3379 154.169 71.2172 156.046 73.5328 156.046H106.012C108.327 156.046 110.207 154.169 110.207 151.851C110.207 149.535 108.327 147.656 106.012 147.656Z" fill="#1F3D99"/>
<path d="M89.7726 46.1937C66.9753 46.1937 48.4297 64.7436 48.4297 87.5408C48.4297 101.902 55.131 110.26 61.0437 117.635C66.0042 123.825 70.2893 129.169 70.2893 137.282V137.485C70.2893 139.277 71.7408 140.73 73.532 140.73H106.011C107.802 140.73 109.254 139.073 109.254 137.282C109.254 129.169 113.539 123.825 118.497 117.635C124.412 110.26 131.111 101.902 131.111 87.5408C131.111 64.7436 112.568 46.1937 89.7726 46.1937Z" fill="#1F3D99"/>
<path d="M98.0881 161.61H81.4469C79.1313 161.61 77.252 163.49 77.252 165.805C77.252 168.123 79.1313 170 81.4469 170H98.0881C100.404 170 102.283 168.123 102.283 165.805C102.283 163.49 100.404 161.61 98.0881 161.61Z" fill="#1F3D99"/>
</svg>
