<svg width="180" height="180" viewBox="0 0 180 180" fill="none" xmlns="http://www.w3.org/2000/svg">
<path d="M116.964 74.8285C115.069 74.8285 113.531 73.2932 113.531 71.3957V60.1142C113.531 58.2188 115.069 56.6814 116.964 56.6814C118.862 56.6814 120.397 58.2188 120.397 60.1142V71.3957C120.397 73.2932 118.862 74.8285 116.964 74.8285Z" fill="#1F3D99"/>
<path d="M132.821 74.8285C130.924 74.8285 129.389 73.2932 129.389 71.3957V49.1369C129.389 47.2415 130.924 45.704 132.821 45.704C134.717 45.704 136.254 47.2415 136.254 49.1369V71.3957C136.254 73.2932 134.717 74.8285 132.821 74.8285Z" fill="#1F3D99"/>
<path d="M148.681 74.8285C146.785 74.8285 145.248 73.2932 145.248 71.3957V38.1596C145.248 36.2642 146.785 34.7268 148.681 34.7268C150.578 34.7268 152.114 36.2642 152.114 38.1596V71.3957C152.114 73.2932 150.578 74.8285 148.681 74.8285Z" fill="#1F3D99"/>
<path d="M112.527 160.772V142.604C112.527 137.112 108.076 132.662 102.584 132.662H70.8196C65.3278 132.662 60.877 137.112 60.877 142.604V160.772H112.527Z" fill="#1F3D99"/>
<path d="M86.6961 127.226C93.2659 127.226 98.6149 121.879 98.6149 115.307C98.6149 108.733 93.2659 103.386 86.6961 103.386C80.1242 103.386 74.7773 108.733 74.7773 115.307C74.7773 121.879 80.1242 127.226 86.6961 127.226Z" fill="#1F3D99"/>
<path d="M170 160.772V142.604C170 137.112 165.549 132.662 160.057 132.662H128.292C122.8 132.662 118.35 137.112 118.35 142.604V160.772H170Z" fill="#1F3D99"/>
<path d="M144.169 127.226C150.741 127.226 156.088 121.879 156.088 115.307C156.088 108.733 150.741 103.386 144.169 103.386C137.597 103.386 132.25 108.733 132.25 115.307C132.25 121.879 137.597 127.226 144.169 127.226Z" fill="#1F3D99"/>
<path d="M162.336 20H52.0664C53.7487 22.032 55.0006 24.424 55.729 27.0354H162.336C162.681 27.0354 162.965 27.3168 162.965 27.6644V83.0082C162.965 83.3537 162.681 83.6372 162.336 83.6372H62.872L62.2242 90.6726H162.336C166.567 90.6726 169.998 87.2397 169.998 83.0082V27.6644C169.998 23.4308 166.567 20 162.336 20Z" fill="#1F3D99"/>
<path d="M37.3936 44.2659C44.0835 44.2659 49.5256 38.8237 49.5256 32.1339C49.5256 25.444 44.0835 20 37.3936 20C30.7038 20 25.2617 25.444 25.2617 32.1339C25.2617 38.8237 30.7038 44.2659 37.3936 44.2659Z" fill="white"/>
<path d="M89.9117 48.692H20.1227C14.5316 48.692 10 53.2258 10 58.8148V97.7184C10 101.064 12.7128 103.775 16.0567 103.775H20.7187L25.9538 160.772H48.8396L57.9338 61.7634H89.9117C93.5205 61.7634 96.4464 58.8375 96.4464 55.2288C96.4464 51.62 93.5205 48.692 89.9117 48.692Z" fill="white"/>
</svg>
