<svg width="344" height="244" viewBox="0 0 344 244" fill="none" xmlns="http://www.w3.org/2000/svg">
<g clip-path="url(#clip0_988_784)">
<path d="M18.8798 0.969971L24.3498 37.55H24.4898L30.3098 0.969971H39.8698L45.6898 37.55H45.8298L51.3098 0.969971H60.8698L51.8598 50.44H40.6998L35.1598 14.55H35.0198L29.4798 50.44H18.3198L9.31982 0.969971H18.8798Z" fill="#330072"/>
<path d="M73.48 0.969971V19.89H85.12V0.969971H95.1V50.44H85.12V28.48H73.48V50.44H63.5V0.969971H73.48Z" fill="#330072"/>
<path d="M128.28 9.14997H110.61V20.79H127.24V28.97H110.61V42.27H128.97V50.45H100.63V0.969971H128.28V9.14997Z" fill="#330072"/>
<path d="M156.14 34.85H156.28V0.969971H165.43V50.44H154.07L141.88 15.8H141.74V50.44H132.59V0.969971H144.09L156.15 34.85H156.14Z" fill="#330072"/>
<path d="M211.77 36.58C211.77 41.85 210.55 45.6 208.1 47.84C205.65 50.08 201.91 51.2 196.88 51.2C194.25 51.2 192.09 50.84 190.4 50.13C188.71 49.42 187.37 48.4 186.38 47.08C185.39 45.76 184.71 44.23 184.34 42.47C183.97 40.72 183.79 38.87 183.79 36.93V34.78H192.94V36.3C192.94 38.93 193.23 40.88 193.81 42.15C194.39 43.42 195.58 44.06 197.38 44.06C199.18 44.06 200.37 43.43 200.95 42.15C201.53 40.88 201.82 38.93 201.82 36.3V0.969971H211.8V36.58H211.77Z" fill="#330072"/>
<path d="M216.38 15.35C216.73 12.19 217.49 9.47 218.67 7.21C219.85 4.95 221.55 3.18 223.76 1.91C225.98 0.64 228.96 0 232.7 0C236.44 0 239.42 0.64 241.64 1.91C243.86 3.18 245.56 4.95 246.73 7.21C247.91 9.47 248.67 12.19 249.02 15.35C249.37 18.52 249.54 21.97 249.54 25.71C249.54 29.45 249.37 32.96 249.02 36.1C248.67 39.24 247.91 41.94 246.73 44.21C245.55 46.47 243.85 48.21 241.64 49.41C239.42 50.61 236.44 51.21 232.7 51.21C228.96 51.21 225.98 50.61 223.76 49.41C221.54 48.21 219.84 46.48 218.67 44.21C217.49 41.95 216.73 39.25 216.38 36.1C216.03 32.96 215.86 29.49 215.86 25.71C215.86 21.93 216.03 18.52 216.38 15.35ZM226.08 34.2C226.24 36.53 226.57 38.43 227.05 39.88C227.53 41.34 228.23 42.4 229.13 43.07C230.03 43.74 231.22 44.07 232.7 44.07C234.18 44.07 235.37 43.74 236.27 43.07C237.17 42.4 237.86 41.34 238.35 39.88C238.83 38.42 239.16 36.53 239.32 34.2C239.48 31.87 239.56 29.04 239.56 25.71C239.56 22.38 239.48 19.57 239.32 17.26C239.16 14.95 238.83 13.06 238.35 11.58C237.86 10.1 237.17 9.03 236.27 8.36C235.37 7.69 234.18 7.36 232.7 7.36C231.22 7.36 230.03 7.69 229.13 8.36C228.23 9.03 227.54 10.1 227.05 11.58C226.56 13.06 226.24 14.95 226.08 17.26C225.92 19.57 225.84 22.39 225.84 25.71C225.84 29.03 225.92 31.87 226.08 34.2Z" fill="#330072"/>
<path d="M270.74 0.969971C272.77 0.969971 274.65 1.17997 276.39 1.58997C278.12 2.00997 279.61 2.69997 280.86 3.66997C282.11 4.63997 283.08 5.92997 283.77 7.54997C284.46 9.16997 284.81 11.15 284.81 13.51C284.81 16.19 284.19 18.49 282.94 20.4C281.69 22.31 279.82 23.62 277.33 24.31V24.45C280.1 24.82 282.29 26 283.91 27.98C285.53 29.97 286.33 32.62 286.33 35.95C286.33 37.89 286.08 39.74 285.57 41.49C285.06 43.25 284.19 44.78 282.97 46.1C281.75 47.42 280.15 48.47 278.19 49.25C276.23 50.04 273.79 50.43 270.88 50.43H254.04V0.969971H270.74ZM266.86 21.27C269.63 21.27 271.65 20.77 272.92 19.78C274.19 18.79 274.83 17.11 274.83 14.76C274.83 12.41 274.25 10.74 273.1 9.76997C271.94 8.79997 270.12 8.30997 267.63 8.30997H264.03V21.27H266.87H266.86ZM267.9 43.1C270.3 43.1 272.24 42.57 273.72 41.51C275.2 40.45 275.94 38.49 275.94 35.62C275.94 34.19 275.74 33 275.35 32.05C274.96 31.1 274.43 30.34 273.76 29.76C273.09 29.18 272.29 28.78 271.37 28.55C270.45 28.32 269.43 28.2 268.32 28.2H264.02V43.1H267.9Z" fill="#330072"/>
<path d="M299.21 36.45C299.21 37.61 299.3 38.66 299.49 39.6C299.67 40.55 300.02 41.34 300.53 41.99C301.04 42.64 301.72 43.15 302.57 43.51C303.42 43.88 304.5 44.06 305.79 44.06C307.31 44.06 308.69 43.56 309.91 42.57C311.13 41.58 311.75 40.04 311.75 37.96C311.75 36.85 311.6 35.89 311.3 35.08C311 34.27 310.5 33.54 309.81 32.9C309.12 32.25 308.2 31.66 307.07 31.13C305.94 30.6 304.54 30.06 302.88 29.5C300.66 28.76 298.75 27.95 297.13 27.07C295.51 26.19 294.16 25.16 293.08 23.99C291.99 22.81 291.2 21.45 290.69 19.9C290.18 18.35 289.93 16.56 289.93 14.53C289.93 9.62998 291.29 5.98998 294.02 3.57998C296.75 1.17998 300.49 -0.0200195 305.24 -0.0200195C307.46 -0.0200195 309.5 0.21998 311.37 0.70998C313.24 1.18998 314.86 1.97998 316.22 3.06998C317.58 4.15998 318.64 5.53998 319.41 7.22998C320.17 8.91998 320.55 10.94 320.55 13.29V14.68H310.99C310.99 12.32 310.57 10.51 309.74 9.23998C308.91 7.96998 307.52 7.32998 305.58 7.32998C304.47 7.32998 303.55 7.48998 302.81 7.80998C302.07 8.12998 301.48 8.55998 301.04 9.08998C300.6 9.61998 300.3 10.23 300.14 10.93C299.98 11.62 299.9 12.34 299.9 13.08C299.9 14.6 300.22 15.89 300.87 16.93C301.52 17.97 302.9 18.93 305.03 19.81L312.72 23.14C314.61 23.97 316.16 24.84 317.36 25.74C318.56 26.64 319.52 27.61 320.24 28.65C320.96 29.69 321.45 30.83 321.73 32.08C322.01 33.33 322.15 34.71 322.15 36.24C322.15 41.46 320.64 45.26 317.61 47.64C314.58 50.02 310.37 51.21 304.97 51.21C299.57 51.21 295.3 49.99 292.88 47.54C290.46 45.09 289.24 41.58 289.24 37.01V35H299.22V36.46L299.21 36.45Z" fill="#330072"/>
<path d="M91.7301 73.35H74.0601V84.99H90.6901V93.17H74.0601V106.47H92.4201V114.65H64.0801V65.18H91.7301V73.36V73.35Z" fill="#330072"/>
<path d="M111.83 101.76H112.04L119.38 65.18H129.7L118.34 114.65H105.52L94.1602 65.18H104.83L111.83 101.76Z" fill="#330072"/>
<path d="M131.47 79.55C131.82 76.39 132.58 73.67 133.76 71.41C134.94 69.15 136.64 67.38 138.85 66.11C141.07 64.84 144.05 64.2 147.79 64.2C151.53 64.2 154.51 64.84 156.73 66.11C158.95 67.38 160.65 69.15 161.82 71.41C163 73.67 163.76 76.39 164.11 79.55C164.46 82.71 164.63 86.17 164.63 89.91C164.63 93.65 164.46 97.16 164.11 100.3C163.76 103.44 163 106.14 161.82 108.41C160.64 110.67 158.94 112.41 156.73 113.61C154.51 114.81 151.53 115.41 147.79 115.41C144.05 115.41 141.07 114.81 138.85 113.61C136.63 112.41 134.93 110.68 133.76 108.41C132.58 106.15 131.82 103.45 131.47 100.3C131.12 97.16 130.95 93.7 130.95 89.91C130.95 86.12 131.12 82.72 131.47 79.55ZM141.17 98.4C141.33 100.73 141.66 102.63 142.14 104.08C142.62 105.54 143.32 106.6 144.22 107.27C145.12 107.94 146.31 108.27 147.79 108.27C149.27 108.27 150.46 107.94 151.36 107.27C152.26 106.6 152.95 105.54 153.44 104.08C153.92 102.62 154.25 100.73 154.41 98.4C154.57 96.07 154.65 93.24 154.65 89.91C154.65 86.58 154.57 83.77 154.41 81.46C154.25 79.15 153.92 77.26 153.44 75.78C152.95 74.3 152.26 73.23 151.36 72.56C150.46 71.89 149.27 71.56 147.79 71.56C146.31 71.56 145.12 71.9 144.22 72.56C143.32 73.23 142.63 74.3 142.14 75.78C141.65 77.26 141.33 79.15 141.17 81.46C141.01 83.77 140.93 86.59 140.93 89.91C140.93 93.23 141.01 96.07 141.17 98.4Z" fill="#330072"/>
<path d="M169.13 65.18H179.11V106.47H196.78V114.65H169.13V65.18Z" fill="#330072"/>
<path d="M209.11 101.76H209.32L216.66 65.18H226.98L215.62 114.65H202.8L191.44 65.18H202.11L209.11 101.76Z" fill="#330072"/>
<path d="M256.92 73.35H239.25V84.99H255.88V93.17H239.25V106.47H257.61V114.65H229.27V65.18H256.92V73.36V73.35Z" fill="#330072"/>
<path d="M270.63 112.85C270.63 114.56 270.5 116.19 270.25 117.73C270 119.28 269.52 120.62 268.83 121.75C268.14 122.88 267.2 123.8 266.02 124.52C264.84 125.23 263.33 125.69 261.48 125.87V121.02C262.68 120.79 263.58 120.14 264.18 119.08C264.78 118.02 265.08 116.84 265.08 115.55V114.65H261.48V103.84H270.63V112.85Z" fill="#330072"/>
<path d="M32.6999 163.26H32.8399V129.38H41.9899V178.85H30.6299L18.4399 144.21H18.2999V178.85H9.1499V129.38H20.6499L32.7099 163.26H32.6999Z" fill="#330072"/>
<path d="M75.1798 137.56H57.5098V149.2H74.1398V157.38H57.5098V170.68H75.8698V178.86H47.5298V129.39H75.1798V137.57V137.56Z" fill="#330072"/>
<path d="M86.12 129.38L91.59 165.96H91.73L97.55 129.38H107.11L112.93 165.96H113.07L118.54 129.38H128.1L119.09 178.85H107.93L102.39 142.96H102.25L96.71 178.85H85.55L76.54 129.38H86.1H86.12Z" fill="#330072"/>
<path d="M154.02 164.86C154.02 166.02 154.11 167.07 154.3 168.01C154.48 168.96 154.83 169.75 155.34 170.4C155.85 171.05 156.53 171.56 157.38 171.92C158.23 172.29 159.31 172.47 160.6 172.47C162.12 172.47 163.5 171.97 164.72 170.98C165.94 169.99 166.56 168.45 166.56 166.37C166.56 165.26 166.41 164.3 166.11 163.49C165.81 162.68 165.31 161.95 164.62 161.31C163.93 160.66 163.01 160.07 161.88 159.54C160.75 159.01 159.35 158.47 157.69 157.91C155.47 157.17 153.56 156.36 151.94 155.49C150.32 154.61 148.97 153.58 147.89 152.41C146.8 151.23 146.01 149.87 145.5 148.32C144.99 146.77 144.74 144.98 144.74 142.95C144.74 138.05 146.1 134.41 148.83 132C151.56 129.6 155.3 128.4 160.05 128.4C162.27 128.4 164.31 128.64 166.18 129.13C168.05 129.62 169.67 130.4 171.03 131.49C172.39 132.57 173.45 133.96 174.22 135.65C174.98 137.34 175.36 139.36 175.36 141.71V143.1H165.8C165.8 140.74 165.38 138.93 164.55 137.66C163.72 136.39 162.33 135.75 160.39 135.75C159.28 135.75 158.36 135.91 157.62 136.24C156.88 136.56 156.29 136.99 155.85 137.52C155.41 138.05 155.11 138.66 154.95 139.36C154.79 140.05 154.71 140.77 154.71 141.51C154.71 143.03 155.03 144.32 155.68 145.36C156.33 146.4 157.71 147.36 159.84 148.24L167.53 151.57C169.42 152.4 170.97 153.27 172.17 154.17C173.37 155.07 174.33 156.04 175.05 157.08C175.77 158.12 176.26 159.26 176.54 160.51C176.82 161.76 176.96 163.14 176.96 164.67C176.96 169.89 175.45 173.69 172.42 176.07C169.39 178.45 165.18 179.64 159.78 179.64C154.38 179.64 150.11 178.42 147.69 175.97C145.27 173.52 144.05 170.01 144.05 165.44V163.43H154.03V164.89L154.02 164.86Z" fill="#330072"/>
<path d="M190.54 149.2H190.68L203.29 129.38H214.1L200.66 150.58L215.63 178.85H204.41L194.22 158.55L190.55 164.16V178.85H180.57V129.38H190.55V149.2H190.54Z" fill="#330072"/>
<path d="M216.87 129.38H226.85V178.85H216.87V129.38Z" fill="#330072"/>
<path d="M232.87 129.38H242.85V170.67H260.52V178.85H232.87V129.38Z" fill="#330072"/>
<path d="M263.57 129.38H273.55V170.67H291.22V178.85H263.57V129.38Z" fill="#330072"/>
<path d="M302.3 164.86C302.3 166.02 302.39 167.07 302.58 168.01C302.76 168.96 303.11 169.75 303.62 170.4C304.13 171.05 304.81 171.56 305.66 171.92C306.51 172.29 307.59 172.47 308.88 172.47C310.4 172.47 311.78 171.97 313 170.98C314.22 169.99 314.84 168.45 314.84 166.37C314.84 165.26 314.69 164.3 314.39 163.49C314.09 162.68 313.59 161.95 312.9 161.31C312.21 160.66 311.29 160.07 310.16 159.54C309.03 159.01 307.63 158.47 305.97 157.91C303.75 157.17 301.84 156.36 300.22 155.49C298.6 154.61 297.25 153.58 296.17 152.41C295.08 151.23 294.29 149.87 293.78 148.32C293.27 146.77 293.02 144.98 293.02 142.95C293.02 138.05 294.38 134.41 297.11 132C299.84 129.6 303.58 128.4 308.33 128.4C310.55 128.4 312.59 128.64 314.46 129.13C316.33 129.62 317.95 130.4 319.31 131.49C320.67 132.57 321.73 133.96 322.5 135.65C323.26 137.34 323.64 139.36 323.64 141.71V143.1H314.08C314.08 140.74 313.66 138.93 312.83 137.66C312 136.39 310.61 135.75 308.67 135.75C307.56 135.75 306.64 135.91 305.9 136.24C305.16 136.56 304.57 136.99 304.13 137.52C303.69 138.05 303.39 138.66 303.23 139.36C303.07 140.05 302.99 140.77 302.99 141.51C302.99 143.03 303.31 144.32 303.96 145.36C304.61 146.4 305.99 147.36 308.12 148.24L315.81 151.57C317.7 152.4 319.25 153.27 320.45 154.17C321.65 155.07 322.61 156.04 323.33 157.08C324.05 158.12 324.54 159.26 324.82 160.51C325.1 161.76 325.24 163.14 325.24 164.67C325.24 169.89 323.73 173.69 320.7 176.07C317.67 178.45 313.46 179.64 308.06 179.64C302.66 179.64 298.39 178.42 295.97 175.97C293.55 173.52 292.33 170.01 292.33 165.44V163.43H302.31V164.89L302.3 164.86Z" fill="#330072"/>
<path d="M25.43 193.59L38.52 243.06H28.13L25.84 232.6H12.67L10.38 243.06H0L13.1 193.59H25.43ZM24.11 224.42L19.33 202.18H19.19L14.41 224.42H24.11Z" fill="#330072"/>
<path d="M59.0301 193.59C63.1901 193.59 66.4201 194.64 68.7301 196.74C71.0401 198.84 72.1901 202.04 72.1901 206.34C72.1901 209.67 71.5201 212.38 70.1801 214.48C68.8401 216.58 66.7601 217.93 63.9401 218.53V218.67C66.4301 219.04 68.2601 219.85 69.4101 221.1C70.5601 222.35 71.2801 224.36 71.5601 227.13C71.6501 228.05 71.7201 229.06 71.7701 230.14C71.8201 231.23 71.8601 232.44 71.9101 233.78C72.0001 236.41 72.1401 238.42 72.3301 239.81C72.6101 241.2 73.2101 242.14 74.1301 242.65V243.07H63.3201C62.8101 242.38 62.4901 241.58 62.3501 240.68C62.2101 239.78 62.1201 238.84 62.0701 237.87L61.7901 228.38C61.7001 226.44 61.2101 224.92 60.3301 223.81C59.4501 222.7 57.9701 222.15 55.9001 222.15H50.5601V243.07H40.5801V193.6H59.0101L59.0301 193.59ZM54.7301 215.21C57.1301 215.21 58.9801 214.64 60.2701 213.51C61.5601 212.38 62.2101 210.47 62.2101 207.79C62.2101 203.22 59.9001 200.93 55.2801 200.93H50.5701V215.2H54.7301V215.21Z" fill="#330072"/>
<path d="M105.39 201.76H87.7202V213.4H104.35V221.58H87.7202V234.88H106.08V243.06H77.7402V193.59H105.39V201.77V201.76Z" fill="#330072"/>
<path d="M148.48 227.47H148.62V193.59H157.77V243.06H146.41L134.22 208.42H134.08V243.06H124.93V193.59H136.43L148.49 227.47H148.48Z" fill="#330072"/>
<path d="M190.96 201.76H173.29V213.4H189.92V221.58H173.29V234.88H191.65V243.06H163.31V193.59H190.96V201.77V201.76Z" fill="#330072"/>
<path d="M222.9 201.76H205.23V213.4H221.86V221.58H205.23V234.88H223.59V243.06H195.25V193.59H222.9V201.77V201.76Z" fill="#330072"/>
<path d="M244.03 193.59C247.49 193.59 250.29 194.16 252.41 195.29C254.53 196.42 256.19 198.04 257.36 200.14C258.54 202.24 259.34 204.77 259.75 207.73C260.17 210.69 260.37 213.99 260.37 217.64C260.37 221.98 260.1 225.76 259.57 228.97C259.04 232.18 258.13 234.82 256.83 236.9C255.54 238.98 253.8 240.53 251.63 241.54C249.46 242.56 246.71 243.06 243.38 243.06H227.65V193.59H244H244.03ZM242.09 235.72C243.84 235.72 245.25 235.42 246.32 234.82C247.38 234.22 248.23 233.23 248.85 231.84C249.47 230.45 249.89 228.63 250.1 226.37C250.31 224.11 250.41 221.29 250.41 217.92C250.41 215.1 250.32 212.63 250.13 210.51C249.95 208.39 249.56 206.62 248.99 205.21C248.41 203.8 247.56 202.74 246.43 202.02C245.3 201.3 243.79 200.95 241.89 200.95H237.66V235.73H242.09V235.72Z" fill="#330072"/>
<path d="M291.83 201.76H274.16V213.4H290.79V221.58H274.16V234.88H292.52V243.06H264.18V193.59H291.83V201.77V201.76Z" fill="#330072"/>
<path d="M312.97 193.59C316.43 193.59 319.23 194.16 321.35 195.29C323.47 196.42 325.13 198.04 326.3 200.14C327.48 202.24 328.28 204.77 328.69 207.73C329.11 210.69 329.31 213.99 329.31 217.64C329.31 221.98 329.04 225.76 328.51 228.97C327.98 232.18 327.07 234.82 325.77 236.9C324.48 238.98 322.74 240.53 320.57 241.54C318.4 242.56 315.65 243.06 312.32 243.06H296.59V193.59H312.94H312.97ZM311.03 235.72C312.78 235.72 314.19 235.42 315.26 234.82C316.32 234.22 317.17 233.23 317.79 231.84C318.41 230.45 318.83 228.63 319.04 226.37C319.25 224.11 319.35 221.29 319.35 217.92C319.35 215.1 319.26 212.63 319.07 210.51C318.89 208.39 318.5 206.62 317.93 205.21C317.35 203.8 316.5 202.74 315.37 202.02C314.24 201.3 312.73 200.95 310.83 200.95H306.6V235.73H311.03V235.72Z" fill="#330072"/>
<path d="M343.94 243.06H334.79V232.25H343.94V243.06Z" fill="#330072"/>
</g>
<defs>
<clipPath id="clip0_988_784">
<rect width="343.94" height="243.06" fill="white"/>
</clipPath>
</defs>
</svg>
