<?xml version="1.0" encoding="UTF-8"?>
<svg id="Layer_2" data-name="Layer 2" xmlns="http://www.w3.org/2000/svg" xmlns:xlink="http://www.w3.org/1999/xlink" viewBox="0 0 1214.31 60.9">
  <defs>
    <style>
      .cls-1 {
        filter: url(#drop-shadow-1);
      }

      .cls-2 {
        fill: #330072;
      }
    </style>
    <filter id="drop-shadow-1" filterUnits="userSpaceOnUse">
      <feOffset dx="1.87" dy="1.87"/>
      <feGaussianBlur result="blur" stdDeviation="1.87"/>
      <feFlood flood-color="#000" flood-opacity=".35"/>
      <feComposite in2="blur" operator="in"/>
      <feComposite in="SourceGraphic"/>
    </filter>
  </defs>
  <g id="Layer_1-2" data-name="Layer 1">
    <g class="cls-1">
      <path class="cls-2" d="m9.44.96l5.41,36.13h.14L20.73.96h9.44l5.75,36.13h.14L41.47.96h9.44l-8.9,48.86h-11.02l-5.47-35.45h-.14l-5.47,35.45h-11.02L0,.96h9.44Z"/>
      <path class="cls-2" d="m63.36.96v18.68h11.5V.96h9.85v48.86h-9.85v-21.69h-11.5v21.69h-9.85V.96h9.85Z"/>
      <path class="cls-2" d="m117.49,9.03h-17.45v11.5h16.42v8.07h-16.42v13.14h18.13v8.07h-27.99V.96h27.3v8.07Z"/>
      <path class="cls-2" d="m145,34.42h.14V.96h9.03v48.86h-11.22l-12.04-34.21h-.14v34.21h-9.03V.96h11.36l11.91,33.46Z"/>
      <path class="cls-2" d="m199.95,36.13c0,5.2-1.21,8.91-3.63,11.12-2.42,2.21-6.11,3.32-11.09,3.32-2.6,0-4.73-.35-6.4-1.06-1.67-.71-2.99-1.71-3.97-3.01-.98-1.3-1.65-2.82-2.02-4.55-.37-1.73-.55-3.56-.55-5.47v-2.12h9.03v1.51c0,2.6.28,4.53.86,5.78.57,1.25,1.74,1.88,3.52,1.88s2.95-.63,3.52-1.88c.57-1.25.86-3.18.86-5.78V.96h9.85v35.17Z"/>
      <path class="cls-2" d="m204.5,15.16c.34-3.12,1.09-5.8,2.26-8.04,1.16-2.23,2.84-3.98,5.03-5.24,2.19-1.25,5.13-1.88,8.83-1.88s6.64.63,8.83,1.88c2.19,1.26,3.87,3,5.03,5.24,1.16,2.24,1.92,4.92,2.26,8.04.34,3.12.51,6.54.51,10.23s-.17,7.16-.51,10.26c-.34,3.1-1.1,5.77-2.26,8.01s-2.84,3.95-5.03,5.13c-2.19,1.19-5.13,1.78-8.83,1.78s-6.64-.59-8.83-1.78c-2.19-1.19-3.87-2.9-5.03-5.13-1.16-2.24-1.92-4.9-2.26-8.01-.34-3.1-.51-6.52-.51-10.26s.17-7.11.51-10.23Zm9.58,18.61c.16,2.3.48,4.17.96,5.61.48,1.44,1.16,2.49,2.05,3.15.89.66,2.06.99,3.52.99s2.63-.33,3.52-.99c.89-.66,1.57-1.71,2.05-3.15.48-1.44.8-3.31.96-5.61.16-2.3.24-5.1.24-8.38s-.08-6.07-.24-8.35c-.16-2.28-.48-4.15-.96-5.61-.48-1.46-1.16-2.52-2.05-3.18-.89-.66-2.06-.99-3.52-.99s-2.63.33-3.52.99c-.89.66-1.57,1.72-2.05,3.18-.48,1.46-.8,3.33-.96,5.61-.16,2.28-.24,5.06-.24,8.35s.08,6.08.24,8.38Z"/>
      <path class="cls-2" d="m258.18.96c2.01,0,3.87.21,5.58.62,1.71.41,3.18,1.09,4.41,2.05,1.23.96,2.19,2.24,2.87,3.83.68,1.6,1.03,3.56,1.03,5.88,0,2.65-.62,4.92-1.85,6.81-1.23,1.89-3.08,3.18-5.54,3.87v.14c2.74.37,4.9,1.53,6.5,3.49,1.6,1.96,2.4,4.58,2.4,7.87,0,1.92-.25,3.74-.75,5.47-.5,1.73-1.36,3.25-2.57,4.55-1.21,1.3-2.78,2.34-4.72,3.11-1.94.78-4.35,1.16-7.22,1.16h-16.63V.96h16.49Zm-3.83,20.05c2.74,0,4.73-.49,5.99-1.47,1.25-.98,1.88-2.63,1.88-4.96s-.57-3.97-1.71-4.93c-1.14-.96-2.94-1.44-5.41-1.44h-3.56v12.8h2.81Zm1.03,21.56c2.37,0,4.29-.52,5.75-1.57,1.46-1.05,2.19-2.99,2.19-5.82,0-1.41-.19-2.59-.58-3.52-.39-.93-.91-1.69-1.57-2.26-.66-.57-1.45-.97-2.36-1.2-.91-.23-1.92-.34-3.01-.34h-4.24v14.71h3.83Z"/>
      <path class="cls-2" d="m286.3,35.99c0,1.14.09,2.18.27,3.11.18.94.52,1.72,1.03,2.36.5.64,1.17,1.14,2.02,1.51.84.37,1.9.55,3.18.55,1.51,0,2.86-.49,4.07-1.47,1.21-.98,1.81-2.5,1.81-4.55,0-1.09-.15-2.04-.44-2.84-.3-.8-.79-1.52-1.47-2.16-.68-.64-1.59-1.22-2.7-1.75-1.12-.52-2.5-1.06-4.14-1.61-2.19-.73-4.08-1.53-5.68-2.4-1.6-.87-2.93-1.88-4-3.04-1.07-1.16-1.86-2.51-2.36-4.04-.5-1.53-.75-3.29-.75-5.3,0-4.83,1.34-8.44,4.04-10.81,2.69-2.37,6.39-3.56,11.09-3.56,2.19,0,4.21.24,6.06.72,1.85.48,3.44,1.26,4.79,2.33,1.35,1.07,2.4,2.44,3.15,4.11.75,1.67,1.13,3.66,1.13,5.99v1.37h-9.44c0-2.33-.41-4.12-1.23-5.37-.82-1.25-2.19-1.88-4.11-1.88-1.09,0-2.01.16-2.74.48-.73.32-1.31.74-1.75,1.27-.43.52-.73,1.13-.89,1.81-.16.68-.24,1.39-.24,2.12,0,1.5.32,2.77.96,3.8.64,1.03,2.01,1.97,4.11,2.84l7.6,3.28c1.87.82,3.4,1.68,4.58,2.57,1.19.89,2.13,1.85,2.84,2.87.71,1.03,1.2,2.16,1.47,3.39.27,1.23.41,2.6.41,4.11,0,5.16-1.49,8.91-4.48,11.26-2.99,2.35-7.15,3.52-12.49,3.52s-9.55-1.21-11.94-3.63c-2.4-2.42-3.59-5.88-3.59-10.4v-1.98h9.85v1.44Z"/>
      <path class="cls-2" d="m354.87,9.03h-17.45v11.5h16.42v8.07h-16.42v13.14h18.13v8.07h-27.99V.96h27.3v8.07Z"/>
      <path class="cls-2" d="m374.71,37.09h.21l7.25-36.13h10.2l-11.22,48.86h-12.66L357.26.96h10.54l6.91,36.13Z"/>
      <path class="cls-2" d="m394.11,15.16c.34-3.12,1.09-5.8,2.26-8.04,1.16-2.23,2.84-3.98,5.03-5.24,2.19-1.25,5.13-1.88,8.83-1.88s6.64.63,8.83,1.88c2.19,1.26,3.87,3,5.03,5.24,1.16,2.24,1.92,4.92,2.26,8.04.34,3.12.51,6.54.51,10.23s-.17,7.16-.51,10.26c-.34,3.1-1.1,5.77-2.26,8.01s-2.84,3.95-5.03,5.13c-2.19,1.19-5.13,1.78-8.83,1.78s-6.64-.59-8.83-1.78c-2.19-1.19-3.87-2.9-5.03-5.13-1.16-2.24-1.92-4.9-2.26-8.01-.34-3.1-.51-6.52-.51-10.26s.17-7.11.51-10.23Zm9.58,18.61c.16,2.3.48,4.17.96,5.61.48,1.44,1.16,2.49,2.05,3.15.89.66,2.06.99,3.52.99s2.63-.33,3.52-.99c.89-.66,1.57-1.71,2.05-3.15.48-1.44.8-3.31.96-5.61.16-2.3.24-5.1.24-8.38s-.08-6.07-.24-8.35c-.16-2.28-.48-4.15-.96-5.61-.48-1.46-1.16-2.52-2.05-3.18-.89-.66-2.06-.99-3.52-.99s-2.63.33-3.52.99c-.89.66-1.57,1.72-2.05,3.18-.48,1.46-.8,3.33-.96,5.61-.16,2.28-.24,5.06-.24,8.35s.08,6.08.24,8.38Z"/>
      <path class="cls-2" d="m431.3.96h9.85v40.78h17.45v8.07h-27.3V.96Z"/>
      <path class="cls-2" d="m470.78,37.09h.21l7.25-36.13h10.2l-11.22,48.86h-12.66L453.33.96h10.54l6.91,36.13Z"/>
      <path class="cls-2" d="m518,9.03h-17.45v11.5h16.42v8.07h-16.42v13.14h18.13v8.07h-27.99V.96h27.3v8.07Z"/>
      <path class="cls-2" d="m531.55,48.04c0,1.69-.13,3.3-.38,4.82-.25,1.53-.72,2.85-1.4,3.97-.68,1.12-1.61,2.03-2.77,2.74-1.16.71-2.66,1.15-4.48,1.33v-4.79c1.19-.23,2.08-.87,2.67-1.92.59-1.05.89-2.21.89-3.49v-.89h-3.56v-10.67h9.03v8.9Z"/>
      <path class="cls-2" d="m573.08,34.42h.14V.96h9.03v48.86h-11.22l-12.04-34.21h-.14v34.21h-9.03V.96h11.36l11.91,33.46Z"/>
      <path class="cls-2" d="m615.03,9.03h-17.45v11.5h16.42v8.07h-16.42v13.14h18.13v8.07h-27.99V.96h27.3v8.07Z"/>
      <path class="cls-2" d="m625.84.96l5.41,36.13h.14l5.75-36.13h9.44l5.75,36.13h.14l5.41-36.13h9.44l-8.9,48.86h-11.02l-5.47-35.45h-.14l-5.47,35.45h-11.02l-8.9-48.86h9.44Z"/>
      <path class="cls-2" d="m692.9,35.99c0,1.14.09,2.18.27,3.11.18.94.52,1.72,1.03,2.36.5.64,1.17,1.14,2.02,1.51.84.37,1.9.55,3.18.55,1.51,0,2.86-.49,4.07-1.47,1.21-.98,1.81-2.5,1.81-4.55,0-1.09-.15-2.04-.45-2.84-.3-.8-.79-1.52-1.47-2.16-.68-.64-1.59-1.22-2.7-1.75-1.12-.52-2.5-1.06-4.14-1.61-2.19-.73-4.08-1.53-5.68-2.4-1.6-.87-2.93-1.88-4-3.04s-1.86-2.51-2.36-4.04c-.5-1.53-.75-3.29-.75-5.3,0-4.83,1.35-8.44,4.04-10.81,2.69-2.37,6.39-3.56,11.09-3.56,2.19,0,4.21.24,6.06.72,1.85.48,3.44,1.26,4.79,2.33,1.34,1.07,2.4,2.44,3.15,4.11.75,1.67,1.13,3.66,1.13,5.99v1.37h-9.44c0-2.33-.41-4.12-1.23-5.37-.82-1.25-2.19-1.88-4.11-1.88-1.09,0-2.01.16-2.74.48s-1.31.74-1.74,1.27c-.43.52-.73,1.13-.89,1.81-.16.68-.24,1.39-.24,2.12,0,1.5.32,2.77.96,3.8s2.01,1.97,4.11,2.84l7.6,3.28c1.87.82,3.4,1.68,4.58,2.57,1.19.89,2.13,1.85,2.84,2.87.71,1.03,1.2,2.16,1.47,3.39.27,1.23.41,2.6.41,4.11,0,5.16-1.49,8.91-4.48,11.26-2.99,2.35-7.15,3.52-12.49,3.52s-9.55-1.21-11.94-3.63c-2.39-2.42-3.59-5.88-3.59-10.4v-1.98h9.85v1.44Z"/>
      <path class="cls-2" d="m728.96,20.53h.14l12.45-19.57h10.67l-13.28,20.94,14.78,27.92h-11.08l-10.06-20.05-3.63,5.54v14.51h-9.85V.96h9.85v19.57Z"/>
      <path class="cls-2" d="m754.96.96h9.85v48.86h-9.85V.96Z"/>
      <path class="cls-2" d="m770.77.96h9.85v40.78h17.45v8.07h-27.3V.96Z"/>
      <path class="cls-2" d="m801.08.96h9.85v40.78h17.45v8.07h-27.3V.96Z"/>
      <path class="cls-2" d="m839.33,35.99c0,1.14.09,2.18.27,3.11.18.94.52,1.72,1.03,2.36.5.64,1.17,1.14,2.02,1.51.84.37,1.9.55,3.18.55,1.51,0,2.86-.49,4.07-1.47,1.21-.98,1.81-2.5,1.81-4.55,0-1.09-.15-2.04-.45-2.84-.3-.8-.79-1.52-1.47-2.16-.68-.64-1.59-1.22-2.7-1.75-1.12-.52-2.5-1.06-4.14-1.61-2.19-.73-4.08-1.53-5.68-2.4-1.6-.87-2.93-1.88-4-3.04s-1.86-2.51-2.36-4.04c-.5-1.53-.75-3.29-.75-5.3,0-4.83,1.35-8.44,4.04-10.81,2.69-2.37,6.39-3.56,11.09-3.56,2.19,0,4.21.24,6.06.72,1.85.48,3.44,1.26,4.79,2.33,1.34,1.07,2.4,2.44,3.15,4.11.75,1.67,1.13,3.66,1.13,5.99v1.37h-9.44c0-2.33-.41-4.12-1.23-5.37-.82-1.25-2.19-1.88-4.11-1.88-1.09,0-2.01.16-2.74.48s-1.31.74-1.74,1.27c-.43.52-.73,1.13-.89,1.81-.16.68-.24,1.39-.24,2.12,0,1.5.32,2.77.96,3.8s2.01,1.97,4.11,2.84l7.6,3.28c1.87.82,3.4,1.68,4.58,2.57,1.19.89,2.13,1.85,2.84,2.87.71,1.03,1.2,2.16,1.47,3.39.27,1.23.41,2.6.41,4.11,0,5.16-1.49,8.91-4.48,11.26-2.99,2.35-7.15,3.52-12.49,3.52s-9.55-1.21-11.94-3.63c-2.39-2.42-3.59-5.88-3.59-10.4v-1.98h9.85v1.44Z"/>
      <path class="cls-2" d="m899.76.96l12.93,48.86h-10.26l-2.26-10.33h-13l-2.26,10.33h-10.26l12.93-48.86h12.18Zm-1.3,30.45l-4.72-21.97h-.14l-4.72,21.97h9.58Z"/>
      <path class="cls-2" d="m932.94.96c4.11,0,7.3,1.04,9.58,3.11,2.28,2.08,3.42,5.23,3.42,9.48,0,3.28-.66,5.96-1.98,8.04-1.32,2.08-3.38,3.41-6.16,4v.14c2.46.37,4.27,1.16,5.41,2.4,1.14,1.23,1.85,3.22,2.12,5.95.09.91.16,1.91.21,2.98.04,1.07.09,2.27.14,3.59.09,2.6.23,4.58.41,5.95.27,1.37.87,2.3,1.78,2.81v.41h-10.67c-.5-.68-.82-1.47-.96-2.36-.14-.89-.23-1.81-.27-2.77l-.27-9.38c-.09-1.92-.57-3.42-1.44-4.52-.87-1.09-2.33-1.64-4.38-1.64h-5.27v20.67h-9.85V.96h18.2Zm-4.24,21.35c2.37,0,4.2-.56,5.47-1.68,1.28-1.12,1.92-3,1.92-5.65,0-4.52-2.28-6.77-6.84-6.77h-4.65v14.1h4.11Z"/>
      <path class="cls-2" d="m978.72,9.03h-17.45v11.5h16.42v8.07h-16.42v13.14h18.13v8.07h-27.99V.96h27.3v8.07Z"/>
      <path class="cls-2" d="m1021.28,34.42h.14V.96h9.03v48.86h-11.22l-12.04-34.21h-.14v34.21h-9.03V.96h11.36l11.91,33.46Z"/>
      <path class="cls-2" d="m1063.23,9.03h-17.45v11.5h16.42v8.07h-16.42v13.14h18.13v8.07h-27.99V.96h27.3v8.07Z"/>
      <path class="cls-2" d="m1094.77,9.03h-17.45v11.5h16.42v8.07h-16.42v13.14h18.13v8.07h-27.99V.96h27.3v8.07Z"/>
      <path class="cls-2" d="m1115.64.96c3.42,0,6.18.56,8.28,1.68,2.1,1.12,3.73,2.71,4.89,4.79,1.16,2.08,1.95,4.57,2.36,7.49.41,2.92.62,6.18.62,9.79,0,4.29-.26,8.02-.79,11.19-.53,3.17-1.43,5.78-2.7,7.83-1.28,2.05-2.99,3.58-5.13,4.58-2.14,1-4.86,1.51-8.14,1.51h-15.53V.96h16.15Zm-1.92,41.6c1.73,0,3.12-.3,4.17-.89,1.05-.59,1.88-1.57,2.5-2.94.62-1.37,1.03-3.17,1.23-5.41.21-2.23.31-5.02.31-8.35,0-2.78-.09-5.22-.27-7.32-.18-2.1-.56-3.84-1.13-5.24-.57-1.39-1.42-2.44-2.53-3.15-1.12-.71-2.61-1.06-4.48-1.06h-4.17v34.35h4.38Z"/>
      <path class="cls-2" d="m1162.86,9.03h-17.45v11.5h16.42v8.07h-16.42v13.14h18.13v8.07h-27.99V.96h27.3v8.07Z"/>
      <path class="cls-2" d="m1183.73.96c3.42,0,6.18.56,8.28,1.68,2.1,1.12,3.73,2.71,4.89,4.79,1.16,2.08,1.95,4.57,2.36,7.49.41,2.92.62,6.18.62,9.79,0,4.29-.26,8.02-.79,11.19-.53,3.17-1.43,5.78-2.7,7.83-1.28,2.05-2.99,3.58-5.13,4.58-2.14,1-4.86,1.51-8.14,1.51h-15.53V.96h16.15Zm-1.92,41.6c1.73,0,3.12-.3,4.17-.89,1.05-.59,1.88-1.57,2.5-2.94.62-1.37,1.03-3.17,1.23-5.41.21-2.23.31-5.02.31-8.35,0-2.78-.09-5.22-.27-7.32-.18-2.1-.56-3.84-1.13-5.24-.57-1.39-1.42-2.44-2.53-3.15-1.12-.71-2.61-1.06-4.48-1.06h-4.17v34.35h4.38Z"/>
      <path class="cls-2" d="m1214.31,49.82h-9.03v-10.67h9.03v10.67Z"/>
    </g>
  </g>
</svg>