<svg width="180" height="180" viewBox="0 0 180 180" fill="none" xmlns="http://www.w3.org/2000/svg">
<path d="M64.8089 24.01C64.8089 30.644 59.433 36.0221 52.799 36.0221C46.165 36.0221 40.7891 30.644 40.7891 24.01C40.7891 17.3782 46.165 12.0001 52.799 12.0001C59.433 12.0001 64.8089 17.3782 64.8089 24.01Z" fill="white"/>
<path d="M138.592 24.01C138.592 30.644 133.216 36.0221 126.582 36.0221C119.95 36.0221 114.572 30.644 114.572 24.01C114.572 17.3782 119.95 12.0001 126.582 12.0001C133.216 12.0001 138.592 17.3782 138.592 24.01Z" fill="white"/>
<path d="M76.7379 53.7716C76.7379 48.6623 72.5958 44.518 67.4842 44.518H38.1127C33.0034 44.518 28.8613 48.6623 28.8613 53.7716V79.0847C41.5587 71.1618 58.0962 65.7529 76.7379 64.0013V53.7716Z" fill="white"/>
<path d="M150.521 53.7715C150.521 48.6622 146.377 44.5179 141.268 44.5179H111.896C106.785 44.5179 102.643 48.6622 102.643 53.7715V63.9527C121.236 65.614 137.765 70.904 150.521 78.7057V53.7715Z" fill="white"/>
<path d="M126.58 121.171C119.949 121.171 114.571 115.795 114.571 109.161C114.571 102.527 119.949 97.1512 126.58 97.1512C133.214 97.1512 138.59 102.527 138.59 109.161C138.59 115.795 133.214 121.171 126.58 121.171ZM52.7981 121.171C46.1641 121.171 40.7881 115.795 40.7881 109.161C40.7881 102.527 46.1641 97.1512 52.7981 97.1512C59.4321 97.1512 64.808 102.527 64.808 109.161C64.808 115.795 59.4321 121.171 52.7981 121.171ZM170 119.413C170 92.5024 134.184 70.688 90 70.688C45.8182 70.688 10 92.5024 10 119.413C10 131.377 17.1099 142.32 28.8598 150.8V138.923C28.8598 133.811 33.0019 129.669 38.1112 129.669H67.4827C72.5943 129.669 76.7364 133.811 76.7364 138.923V167.413C81.0614 167.854 85.4723 168.135 90 168.135C94.314 168.135 98.5155 167.869 102.642 167.47V138.923C102.642 133.811 106.784 129.669 111.896 129.669H141.267C146.377 129.669 150.521 133.811 150.521 138.923V151.217C162.628 142.679 170 131.579 170 119.413Z" fill="#1F3D99"/>
</svg>
