<svg width="180" height="180" viewBox="0 0 180 180" fill="none" xmlns="http://www.w3.org/2000/svg">
<path d="M60.7677 10.0001C33.8773 10.0001 12 31.8783 12 58.768C12 85.6578 33.8773 107.536 60.7677 107.536C61.7505 107.536 62.5495 106.737 62.5495 105.753V60.5506H107.753C108.736 60.5506 109.535 59.752 109.535 58.768C109.535 31.8783 87.6579 10.0001 60.7677 10.0001Z" fill="white"/>
<path d="M146.272 85.0974C148.214 83.6998 151.303 84.0747 153.157 85.9306L167.659 100.438V91.4577L157.648 81.4405C155.374 79.1669 152.252 77.8651 149.082 77.8651C146.71 77.8651 144.458 78.5822 142.568 79.939C140.916 81.1267 139.584 82.7626 138.748 84.6084C135.613 83.9585 132.337 84.6186 129.815 86.4298C128.22 87.5747 126.918 89.1454 126.078 90.9158C123.27 90.2394 120.334 90.6245 117.887 91.9731C120.828 85.6047 122.363 78.6657 122.363 71.5965C122.363 70.6125 121.564 69.8139 120.581 69.8139H73.5962C72.6135 69.8139 71.8145 70.6125 71.8145 71.5965V118.582C71.8145 119.564 72.6135 120.362 73.5962 120.362C82.6097 120.362 91.3992 117.871 99.0724 113.15L113.41 127.493L102.17 124.973L101.957 124.932C100.49 124.694 99.062 124.569 97.7139 124.569C91.3746 124.569 86.4367 125.627 82.9413 130.781C81.5248 132.873 81.2034 135.454 82.0596 137.868C82.924 140.299 84.9008 142.21 87.3288 142.974L167.659 170V163.3L89.2888 136.935C88.7127 136.76 88.247 136.316 88.0441 135.744C87.8715 135.255 87.9271 134.745 88.1985 134.344C90.1722 131.433 92.8388 130.919 97.7139 130.919C98.7158 130.919 99.7854 131.011 100.841 131.182L122.961 136.057C124.416 136.32 125.814 135.548 126.379 134.185C126.867 133.008 126.608 131.712 125.704 130.809L83.2359 88.3264C82.1639 87.2548 81.6204 85.7737 81.7439 84.26C81.8655 82.7504 82.6557 81.3672 83.909 80.4687C85.8518 79.0712 88.9378 79.448 90.7929 81.3019L115.043 105.535L115.382 105.751C116.033 106.053 116.998 106.154 117.755 105.537C118.136 105.228 118.731 104.506 118.435 103.131C117.998 101.116 118.81 99.0322 120.502 97.816C122.464 96.4062 125.531 96.8096 127.596 98.8326L127.803 98.9874C128.475 99.4906 129.561 99.7432 130.469 99.1687C131.269 98.6615 131.617 97.706 131.396 96.612C131.025 94.754 131.857 92.7799 133.52 91.5881C135.46 90.1905 138.553 90.5735 140.425 92.4458C140.425 92.4458 140.633 92.6475 140.877 92.8451C141.621 93.4481 142.632 93.5316 143.395 93.0427C144.01 92.6515 144.558 91.7999 144.25 90.5857C143.723 88.5138 144.517 86.3584 146.272 85.0974Z" fill="#1F3D99"/>
</svg>
