<svg width="1517" height="77" viewBox="0 0 1517 77" fill="none" xmlns="http://www.w3.org/2000/svg">
<g clip-path="url(#clip0_988_620)">
<path d="M11.7931 1.19928L18.5516 46.3354H18.7265L25.8973 1.19928H37.6904L44.8737 46.3354H45.0486L51.8072 1.19928H63.6003L52.4818 62.2386H38.7149L31.8813 17.952H31.7064L24.8729 62.2386H11.106L0 1.19928H11.7931Z" fill="#330072"/>
<path d="M79.1537 1.19928V24.5356H93.5203V1.19928H105.826V62.2386H93.5203V35.1419H79.1537V62.2386H66.8484V1.19928H79.1537Z" fill="#330072"/>
<path d="M146.776 11.2809H124.977V25.6475H145.49V35.7291H124.977V52.1445H147.626V62.2261H112.659V1.19928H146.764V11.2809H146.776Z" fill="#330072"/>
<path d="M181.144 42.9998H181.319V1.19928H192.6V62.2386H178.583L163.542 19.5011H163.367V62.2386H152.086V1.19928H166.278L181.156 42.9998H181.144Z" fill="#330072"/>
<path d="M249.791 45.1361C249.791 51.6323 248.28 56.2671 245.257 59.0279C242.233 61.7888 237.623 63.1755 231.402 63.1755C228.154 63.1755 225.493 62.7383 223.407 61.8513C221.321 60.9643 219.671 59.715 218.447 58.091C217.223 56.4669 216.386 54.5681 215.924 52.4068C215.461 50.2456 215.237 47.9594 215.237 45.5733V42.9249H226.517V44.8113C226.517 48.0594 226.867 50.4705 227.592 52.032C228.304 53.5936 229.766 54.3807 231.989 54.3807C234.213 54.3807 235.675 53.5936 236.387 52.032C237.099 50.4705 237.461 48.0594 237.461 44.8113V1.19928H249.766V45.1361H249.791Z" fill="#330072"/>
<path d="M255.475 18.9389C255.9 15.0412 256.837 11.6932 258.299 8.8948C259.748 6.10893 261.847 3.9227 264.583 2.34863C267.319 0.78704 270.991 0 275.614 0C280.236 0 283.909 0.78704 286.645 2.34863C289.381 3.9227 291.479 6.09643 292.929 8.8948C294.378 11.6932 295.327 15.0412 295.752 18.9389C296.177 22.8366 296.389 27.1091 296.389 31.7189C296.389 36.3287 296.177 40.6637 295.752 44.5364C295.327 48.4092 294.378 51.7447 292.929 54.5431C291.479 57.3415 289.381 59.4777 286.645 60.9518C283.909 62.4385 280.236 63.1755 275.614 63.1755C270.991 63.1755 267.319 62.4385 264.583 60.9518C261.847 59.4652 259.748 57.329 258.299 54.5431C256.85 51.7447 255.9 48.4217 255.475 44.5364C255.051 40.6637 254.838 36.3912 254.838 31.7189C254.838 27.0467 255.051 22.8366 255.475 18.9389ZM267.443 42.1878C267.643 45.0611 268.043 47.3973 268.643 49.1962C269.242 50.9952 270.092 52.3069 271.204 53.1314C272.316 53.9559 273.777 54.3682 275.601 54.3682C277.425 54.3682 278.887 53.9559 279.999 53.1314C281.111 52.3069 281.96 50.9952 282.56 49.1962C283.159 47.3973 283.559 45.0611 283.759 42.1878C283.959 39.3145 284.059 35.8165 284.059 31.7189C284.059 27.6213 283.959 24.1359 283.759 21.2875C283.559 18.4392 283.159 16.1031 282.56 14.2791C281.96 12.4552 281.111 11.131 279.999 10.3065C278.887 9.48195 277.425 9.06969 275.601 9.06969C273.777 9.06969 272.316 9.48195 271.204 10.3065C270.092 11.131 269.242 12.4552 268.643 14.2791C268.043 16.1031 267.643 18.4392 267.443 21.2875C267.244 24.1359 267.144 27.6088 267.144 31.7189C267.144 35.829 267.244 39.3145 267.443 42.1878Z" fill="#330072"/>
<path d="M322.536 1.19928C325.047 1.19928 327.371 1.46163 329.507 1.97383C331.643 2.48603 333.48 3.33553 335.016 4.53483C336.553 5.73413 337.752 7.33319 338.602 9.31953C339.451 11.3184 339.889 13.7669 339.889 16.6652C339.889 19.9758 339.114 22.8116 337.577 25.1728C336.041 27.5339 333.73 29.1454 330.656 30.0074V30.1823C334.079 30.6446 336.778 32.0937 338.777 34.5423C340.776 36.9908 341.775 40.2639 341.775 44.374C341.775 46.7726 341.463 49.0463 340.838 51.2075C340.213 53.3688 339.139 55.2677 337.627 56.8917C336.116 58.5158 334.154 59.815 331.731 60.7769C329.307 61.7514 326.297 62.2261 322.711 62.2261H301.936V1.19928H322.536ZM317.752 26.2471C321.175 26.2471 323.661 25.635 325.235 24.4107C326.796 23.1864 327.583 21.1251 327.583 18.2143C327.583 15.3035 326.871 13.2547 325.447 12.0554C324.023 10.8561 321.774 10.2565 318.688 10.2565H314.241V26.2471H317.752ZM319.038 53.1814C321.999 53.1814 324.398 52.5317 326.222 51.22C328.046 49.9083 328.957 47.4847 328.957 43.9493C328.957 42.1878 328.72 40.7137 328.233 39.5518C327.746 38.39 327.096 37.4406 326.272 36.7285C325.447 36.0164 324.46 35.5167 323.323 35.2294C322.186 34.942 320.925 34.8046 319.563 34.8046H314.266V53.1814H319.051H319.038Z" fill="#330072"/>
<path d="M357.666 44.9612C357.666 46.3853 357.778 47.6846 358.003 48.8464C358.228 50.0207 358.652 50.9951 359.29 51.7947C359.914 52.5942 360.751 53.2188 361.813 53.6811C362.863 54.1433 364.187 54.3682 365.786 54.3682C367.672 54.3682 369.359 53.756 370.87 52.5317C372.382 51.3075 373.132 49.4086 373.132 46.8476C373.132 45.4859 372.944 44.2991 372.582 43.2996C372.207 42.3002 371.595 41.4008 370.745 40.6012C369.896 39.8017 368.759 39.0771 367.372 38.415C365.973 37.7654 364.249 37.0908 362.2 36.4037C359.465 35.4917 357.103 34.4923 355.105 33.4054C353.106 32.3186 351.444 31.0568 350.107 29.6077C348.771 28.1585 347.784 26.472 347.159 24.5606C346.535 22.6492 346.222 20.4505 346.222 17.9395C346.222 11.9055 347.896 7.39565 351.269 4.43489C354.63 1.47412 359.252 -0.0125122 365.124 -0.0125122C367.86 -0.0125122 370.383 0.287312 372.694 0.886962C375.005 1.48661 376.992 2.46104 378.678 3.79776C380.365 5.13448 381.677 6.84598 382.613 8.93225C383.55 11.0185 384.025 13.5046 384.025 16.4154V18.1269H372.232C372.232 15.2161 371.72 12.9799 370.695 11.4183C369.671 9.85671 367.96 9.06967 365.561 9.06967C364.199 9.06967 363.05 9.26956 362.138 9.66932C361.226 10.0691 360.501 10.5938 359.952 11.2559C359.415 11.9055 359.04 12.6676 358.84 13.5171C358.64 14.3666 358.54 15.2536 358.54 16.1655C358.54 18.0394 358.94 19.626 359.739 20.9127C360.539 22.1995 362.25 23.3738 364.874 24.4607L374.368 28.5583C376.704 29.5827 378.616 30.657 380.09 31.7689C381.577 32.8807 382.751 34.08 383.638 35.3543C384.525 36.641 385.137 38.0527 385.474 39.5893C385.812 41.1259 385.986 42.8374 385.986 44.7238C385.986 51.17 384.125 55.8548 380.39 58.7906C376.654 61.7264 371.457 63.188 364.786 63.188C358.115 63.188 352.856 61.6764 349.87 58.6532C346.872 55.6299 345.385 51.3075 345.385 45.6608V43.1872H357.691V44.9862L357.666 44.9612Z" fill="#330072"/>
<path d="M443.328 11.2809H421.529V25.6475H442.041V35.7291H421.529V52.1445H444.178V62.2261H409.211V1.19928H443.316V11.2809H443.328Z" fill="#330072"/>
<path d="M468.114 46.3354H468.376L477.433 1.19928H490.176L476.159 62.2386H460.343L446.314 1.19928H459.481L468.114 46.3354Z" fill="#330072"/>
<path d="M492.35 18.9389C492.774 15.0412 493.711 11.6932 495.173 8.8948C496.622 6.10893 498.721 3.9227 501.457 2.34863C504.193 0.78704 507.865 0 512.488 0C517.11 0 520.783 0.78704 523.519 2.34863C526.255 3.9227 528.353 6.09643 529.803 8.8948C531.252 11.6932 532.201 15.0412 532.626 18.9389C533.051 22.8366 533.263 27.1091 533.263 31.7189C533.263 36.3287 533.051 40.6637 532.626 44.5364C532.201 48.4092 531.252 51.7447 529.803 54.5431C528.353 57.3415 526.255 59.4777 523.519 60.9518C520.783 62.4385 517.11 63.1755 512.488 63.1755C507.865 63.1755 504.193 62.4385 501.457 60.9518C498.721 59.4652 496.622 57.329 495.173 54.5431C493.724 51.7447 492.774 48.4217 492.35 44.5364C491.925 40.6637 491.712 36.3912 491.712 31.7189C491.712 27.0467 491.925 22.8366 492.35 18.9389ZM504.318 42.1878C504.517 45.0611 504.917 47.3973 505.517 49.1962C506.116 50.9952 506.966 52.3069 508.078 53.1314C509.19 53.9559 510.651 54.3682 512.475 54.3682C514.299 54.3682 515.761 53.9559 516.873 53.1314C517.985 52.3069 518.834 50.9952 519.434 49.1962C520.033 47.3973 520.433 45.0611 520.633 42.1878C520.833 39.3145 520.933 35.8165 520.933 31.7189C520.933 27.6213 520.833 24.1359 520.633 21.2875C520.433 18.4392 520.033 16.1031 519.434 14.2791C518.834 12.4552 517.985 11.131 516.873 10.3065C515.761 9.48195 514.299 9.06969 512.475 9.06969C510.651 9.06969 509.19 9.48195 508.078 10.3065C506.966 11.131 506.116 12.4552 505.517 14.2791C504.917 16.1031 504.517 18.4392 504.318 21.2875C504.118 24.1359 504.018 27.6088 504.018 31.7189C504.018 35.829 504.118 39.3145 504.318 42.1878Z" fill="#330072"/>
<path d="M538.81 1.19928H551.115V52.1445H572.915V62.2261H538.81V1.19928Z" fill="#330072"/>
<path d="M588.131 46.3354H588.393L597.451 1.19928H610.193L596.176 62.2386H580.361L566.331 1.19928H579.499L588.131 46.3354Z" fill="#330072"/>
<path d="M647.121 11.2809H625.322V25.6475H645.835V35.7291H625.322V52.1445H647.971V62.2261H613.004V1.19928H647.109V11.2809H647.121Z" fill="#330072"/>
<path d="M664.049 60.0149C664.049 62.1261 663.887 64.1374 663.574 66.0363C663.262 67.9477 662.675 69.5968 661.825 70.9959C660.976 72.3951 659.814 73.5319 658.365 74.4189C656.916 75.3059 655.042 75.8556 652.768 76.0805V70.0965C654.255 69.8091 655.367 69.0096 656.104 67.6979C656.841 66.3861 657.215 64.937 657.215 63.3379V62.2261H652.768V48.8964H664.049V60.0149Z" fill="#330072"/>
<path d="M715.931 42.9998H716.106V1.19928H727.387V62.2386H713.37L698.329 19.5011H698.154V62.2386H686.873V1.19928H701.065L715.944 42.9998H715.931Z" fill="#330072"/>
<path d="M768.338 11.2809H746.538V25.6475H767.051V35.7291H746.538V52.1445H769.188V62.2261H734.22V1.19928H768.326V11.2809H768.338Z" fill="#330072"/>
<path d="M781.842 1.19928L788.601 46.3354H788.776L795.959 1.19928H807.752L814.936 46.3354H815.11L821.869 1.19928H833.662L822.544 62.2386H808.777L801.943 17.952H801.768L794.935 62.2386H781.168L770.049 1.19928H781.842Z" fill="#330072"/>
<path d="M865.619 44.9612C865.619 46.3853 865.731 47.6846 865.956 48.8464C866.181 50.0207 866.606 50.9951 867.243 51.7947C867.867 52.5942 868.704 53.2188 869.766 53.6811C870.816 54.1433 872.14 54.3682 873.739 54.3682C875.625 54.3682 877.312 53.756 878.823 52.5317C880.335 51.3075 881.085 49.4086 881.085 46.8476C881.085 45.4859 880.897 44.2991 880.522 43.2996C880.148 42.3002 879.536 41.4008 878.686 40.6012C877.837 39.8017 876.7 39.0771 875.313 38.415C873.914 37.7654 872.19 37.0908 870.141 36.4037C867.405 35.4917 865.044 34.4923 863.045 33.4054C861.046 32.3186 859.385 31.0568 858.048 29.6077C856.711 28.1585 855.724 26.472 855.1 24.5606C854.475 22.6492 854.163 20.4505 854.163 17.9395C854.163 11.9055 855.849 7.39565 859.21 4.43489C862.57 1.47412 867.193 -0.0125122 873.064 -0.0125122C875.8 -0.0125122 878.324 0.287312 880.635 0.886962C882.946 1.48661 884.932 2.46104 886.619 3.79776C888.293 5.13448 889.617 6.84598 890.554 8.93226C891.491 11.0185 891.966 13.5046 891.966 16.4154V18.1269H880.173C880.173 15.2161 879.66 12.9799 878.636 11.4183C877.612 9.85671 875.9 9.06967 873.502 9.06967C872.14 9.06967 870.991 9.26956 870.079 9.66932C869.167 10.0691 868.442 10.5938 867.905 11.2559C867.368 11.9055 866.993 12.6676 866.793 13.5171C866.593 14.3666 866.493 15.2536 866.493 16.1655C866.493 18.0394 866.893 19.626 867.692 20.9127C868.492 22.1995 870.203 23.3738 872.827 24.4607L882.321 28.5583C884.658 29.5827 886.569 30.657 888.043 31.7689C889.53 32.8807 890.704 34.08 891.591 35.3543C892.478 36.641 893.09 38.0527 893.427 39.5893C893.765 41.1259 893.94 42.8374 893.94 44.7238C893.94 51.17 892.078 55.8548 888.343 58.7906C884.608 61.7264 879.411 63.188 872.739 63.188C866.068 63.188 860.809 61.6764 857.823 58.6532C854.837 55.6299 853.338 51.3075 853.338 45.6608V43.1872H865.644V44.9862L865.619 44.9612Z" fill="#330072"/>
<path d="M910.667 25.6475H910.842L926.396 1.19928H939.725L923.135 27.359L941.599 62.2386H927.757L915.19 37.1907L910.655 44.1117V62.2386H898.35V1.19928H910.655V25.6475H910.667Z" fill="#330072"/>
<path d="M943.148 1.19928H955.453V62.2386H943.148V1.19928Z" fill="#330072"/>
<path d="M962.899 1.19928H975.204V52.1445H997.004V62.2261H962.899V1.19928Z" fill="#330072"/>
<path d="M1000.76 1.19928H1013.07V52.1445H1034.87V62.2261H1000.76V1.19928Z" fill="#330072"/>
<path d="M1048.55 44.9612C1048.55 46.3853 1048.66 47.6846 1048.89 48.8464C1049.11 50.0207 1049.54 50.9951 1050.17 51.7947C1050.8 52.5942 1051.63 53.2188 1052.7 53.6811C1053.75 54.1433 1055.07 54.3682 1056.67 54.3682C1058.56 54.3682 1060.24 53.756 1061.75 52.5317C1063.27 51.3075 1064.01 49.4086 1064.01 46.8476C1064.01 45.4859 1063.83 44.2991 1063.45 43.2996C1063.08 42.3002 1062.47 41.4008 1061.62 40.6012C1060.77 39.8017 1059.63 39.0771 1058.24 38.415C1056.84 37.7654 1055.12 37.0908 1053.07 36.4037C1050.34 35.4917 1047.97 34.4923 1045.98 33.4054C1043.98 32.3186 1042.32 31.0568 1040.98 29.6077C1039.64 28.1585 1038.65 26.472 1038.03 24.5606C1037.41 22.6492 1037.09 20.4505 1037.09 17.9395C1037.09 11.9055 1038.78 7.39565 1042.14 4.43489C1045.5 1.47412 1050.12 -0.0125122 1055.99 -0.0125122C1058.73 -0.0125122 1061.25 0.287312 1063.57 0.886962C1065.88 1.48661 1067.86 2.46104 1069.55 3.79776C1071.22 5.13448 1072.55 6.84598 1073.48 8.93225C1074.42 11.0185 1074.9 13.5046 1074.9 16.4154V18.1269H1063.1C1063.1 15.2161 1062.59 12.9799 1061.57 11.4183C1060.54 9.85671 1058.83 9.06967 1056.43 9.06967C1055.07 9.06967 1053.92 9.26956 1053.01 9.66932C1052.1 10.0691 1051.37 10.5938 1050.83 11.2559C1050.3 11.9055 1049.92 12.6676 1049.72 13.5171C1049.52 14.3666 1049.42 15.2536 1049.42 16.1655C1049.42 18.0394 1049.82 19.626 1050.62 20.9127C1051.42 22.1995 1053.13 23.3738 1055.76 24.4607L1065.25 28.5583C1067.59 29.5827 1069.5 30.657 1070.97 31.7689C1072.46 32.8807 1073.63 34.08 1074.52 35.3543C1075.41 36.641 1076.02 38.0527 1076.36 39.5893C1076.69 41.1259 1076.87 42.8374 1076.87 44.7238C1076.87 51.17 1075.01 55.8548 1071.27 58.7906C1067.54 61.7264 1062.34 63.188 1055.67 63.188C1049 63.188 1043.74 61.6764 1040.75 58.6532C1037.77 55.6299 1036.27 51.3075 1036.27 45.6608V43.1872H1048.57V44.9862L1048.55 44.9612Z" fill="#330072"/>
<path d="M1124.04 1.19928L1140.2 62.2386H1127.38L1124.55 49.3336H1108.31L1105.49 62.2386H1092.67L1108.83 1.19928H1124.04ZM1122.42 39.2395L1116.52 11.7931H1116.35L1110.45 39.2395H1122.42Z" fill="#330072"/>
<path d="M1165.49 1.19928C1170.63 1.19928 1174.61 2.49852 1177.46 5.08451C1180.31 7.68299 1181.73 11.6182 1181.73 16.9276C1181.73 21.0252 1180.91 24.3732 1179.26 26.9717C1177.61 29.5702 1175.04 31.2317 1171.56 31.9688V32.1437C1174.64 32.6059 1176.9 33.5928 1178.32 35.1419C1179.75 36.6785 1180.63 39.1646 1180.97 42.5751C1181.08 43.7119 1181.17 44.9612 1181.23 46.2979C1181.28 47.6346 1181.35 49.1337 1181.41 50.7828C1181.52 54.0309 1181.7 56.5044 1181.92 58.2159C1182.26 59.9274 1183.01 61.0892 1184.14 61.7264V62.2386H1170.81C1170.19 61.3891 1169.79 60.4021 1169.62 59.2903C1169.44 58.1784 1169.33 57.0291 1169.28 55.8298L1168.94 44.1117C1168.83 41.7131 1168.23 39.8392 1167.14 38.465C1166.06 37.1033 1164.23 36.4162 1161.67 36.4162H1155.09V62.2386H1142.78V1.19928H1165.52H1165.49ZM1160.2 27.8712C1163.16 27.8712 1165.44 27.1716 1167.03 25.7724C1168.63 24.3732 1169.43 22.0246 1169.43 18.714C1169.43 13.0673 1166.58 10.2565 1160.88 10.2565H1155.07V27.8712H1160.21H1160.2Z" fill="#330072"/>
<path d="M1222.68 11.2809H1200.88V25.6475H1221.4V35.7291H1200.88V52.1445H1223.53V62.2261H1188.57V1.19928H1222.67V11.2809H1222.68Z" fill="#330072"/>
<path d="M1275.85 42.9998H1276.03V1.19928H1287.31V62.2386H1273.29L1258.25 19.5011H1258.08V62.2386H1246.8V1.19928H1260.99L1275.87 42.9998H1275.85Z" fill="#330072"/>
<path d="M1328.26 11.2809H1306.46V25.6475H1326.97V35.7291H1306.46V52.1445H1329.11V62.2261H1294.14V1.19928H1328.25V11.2809H1328.26Z" fill="#330072"/>
<path d="M1367.66 11.2809H1345.86V25.6475H1366.38V35.7291H1345.86V52.1445H1368.51V62.2261H1333.54V1.19928H1367.65V11.2809H1367.66Z" fill="#330072"/>
<path d="M1393.73 1.19928C1398.01 1.19928 1401.46 1.89887 1404.08 3.29805C1406.7 4.69723 1408.74 6.68357 1410.19 9.28205C1411.64 11.8805 1412.62 14.9912 1413.14 18.6391C1413.65 22.2869 1413.91 26.3596 1413.91 30.8694C1413.91 36.2288 1413.59 40.8886 1412.92 44.8487C1412.26 48.8089 1411.14 52.0695 1409.55 54.6305C1407.95 57.1915 1405.81 59.1029 1403.14 60.3522C1400.47 61.6014 1397.07 62.2386 1392.97 62.2386H1373.57V1.19928H1393.75H1393.73ZM1391.34 53.1689C1393.5 53.1689 1395.23 52.7941 1396.55 52.057C1397.86 51.32 1398.89 50.0957 1399.67 48.3842C1400.44 46.6727 1400.96 44.424 1401.21 41.6256C1401.47 38.8398 1401.59 35.3543 1401.59 31.1942C1401.59 27.7213 1401.48 24.673 1401.26 22.0496C1401.03 19.4261 1400.56 17.2524 1399.84 15.5034C1399.13 13.7669 1398.07 12.4552 1396.68 11.5682C1395.28 10.6812 1393.42 10.244 1391.09 10.244H1385.88V53.1564H1391.35L1391.34 53.1689Z" fill="#330072"/>
<path d="M1452.72 11.2809H1430.93V25.6475H1451.44V35.7291H1430.93V52.1445H1453.57V62.2261H1418.61V1.19928H1452.71V11.2809H1452.72Z" fill="#330072"/>
<path d="M1478.8 1.19928C1483.07 1.19928 1486.52 1.89887 1489.14 3.29805C1491.76 4.69723 1493.8 6.68357 1495.25 9.28205C1496.7 11.8805 1497.69 14.9912 1498.2 18.6391C1498.71 22.2869 1498.97 26.3596 1498.97 30.8694C1498.97 36.2288 1498.65 40.8886 1497.99 44.8487C1497.32 48.8089 1496.2 52.0695 1494.61 54.6305C1493.01 57.1915 1490.88 59.1029 1488.2 60.3522C1485.53 61.6014 1482.13 62.2386 1478.03 62.2386H1458.63V1.19928H1478.81H1478.8ZM1476.4 53.1689C1478.56 53.1689 1480.3 52.7941 1481.61 52.057C1482.92 51.32 1483.96 50.0957 1484.73 48.3842C1485.51 46.6727 1486.02 44.424 1486.27 41.6256C1486.53 38.8398 1486.65 35.3543 1486.65 31.1942C1486.65 27.7213 1486.54 24.673 1486.32 22.0496C1486.09 19.4261 1485.62 17.2524 1484.91 15.5034C1484.19 13.7669 1483.13 12.4552 1481.75 11.5682C1480.35 10.6812 1478.48 10.244 1476.15 10.244H1470.94V53.1564H1476.41L1476.4 53.1689Z" fill="#330072"/>
<path d="M1517 62.2386H1505.72V48.9089H1517V62.2386Z" fill="#330072"/>
</g>
<defs>
<clipPath id="clip0_988_620">
<rect width="1517" height="76.0805" fill="white"/>
</clipPath>
</defs>
</svg>
